<?xml version="1.0" encoding="utf-8"?>
<!-- Generator: Adobe Illustrator 26.5.0, SVG Export Plug-In . SVG Version: 6.00 Build 0)  -->
<svg version="1.1" id="Layer_1" xmlns="http://www.w3.org/2000/svg" xmlns:xlink="http://www.w3.org/1999/xlink" x="0px" y="0px"
	 viewBox="0 0 24 24" style="enable-background:new 0 0 24 24;" xml:space="preserve">
<style type="text/css">
	.st0{fill:#FFFFFF;}
</style>
<path class="st0" d="M20,22H4v-2c0-2.2,3.6-4,8-4s8,1.8,8,4 M8,9h8v1c0,2.2-1.8,4-4,4s-4-1.8-4-4 M19,4c-0.6,0-1,0.4-1,1v1h-1.5
	l-1.4-3c-0.1-0.2-0.2-0.4-0.4-0.5c-0.5-0.5-1.3-0.6-2-0.3L12,2.4l-0.7-0.3c-0.7-0.3-1.5-0.2-2,0.3C9.1,2.6,9,2.8,8.9,3L7.5,6H6V5
	c0-0.6-0.4-1-1-1S4,4.4,4,5v1c0,1.1,0.9,2,2,2h12c1.1,0,2-0.9,2-2V5C20,4.5,19.6,4,19,4z"/>
</svg>
